<svg viewBox="0 0 800 400" xmlns="http://www.w3.org/2000/svg">
  <!-- Background -->
  <defs>
    <linearGradient id="bg-gradient" x1="0%" y1="0%" x2="100%" y2="100%">
      <stop offset="0%" stop-color="#f0f4f8" />
      <stop offset="100%" stop-color="#d1e0ed" />
    </linearGradient>
  </defs>
  
  <rect width="800" height="400" fill="url(#bg-gradient)" rx="10" ry="10" />
  
  <!-- Title -->
  <text x="400" y="60" font-family="Arial" font-size="24" font-weight="bold" text-anchor="middle" fill="#1e3a8a">Product Recommendation Workflow</text>
  
  <!-- Step 1: Embed Query -->
  <circle cx="100" cy="200" r="70" fill="#6366f1" />
  <circle cx="100" cy="200" r="65" fill="#818cf8" />
  <text x="100" y="190" font-family="Arial" font-size="14" font-weight="bold" text-anchor="middle" fill="white">1. Embed Query</text>
  <text x="100" y="210" font-family="Arial" font-size="11" text-anchor="middle" fill="white">using the</text>
  <text x="100" y="225" font-family="Arial" font-size="11" text-anchor="middle" fill="white">embedding model</text>
  
  <!-- Step 2: Pass Through Query Tower -->
  <rect x="230" y="150" width="140" height="100" rx="10" ry="10" fill="#4f46e5" />
  <rect x="235" y="155" width="130" height="90" rx="7" ry="7" fill="#6366f1" />
  <text x="300" y="185" font-family="Arial" font-size="14" font-weight="bold" text-anchor="middle" fill="white">2. Pass Through</text>
  <text x="300" y="205" font-family="Arial" font-size="14" font-weight="bold" text-anchor="middle" fill="white">Query Tower</text>
  
  <!-- Step 3: Query Tower Output -->
  <polygon points="430,150 570,150 550,250 450,250" fill="#4338ca" />
  <polygon points="435,155 565,155 547,245 453,245" fill="#6366f1" />
  <text x="500" y="190" font-family="Arial" font-size="14" font-weight="bold" text-anchor="middle" fill="white">3. Query Tower</text>
  <text x="500" y="210" font-family="Arial" font-size="14" font-weight="bold" text-anchor="middle" fill="white">Output</text>
  
  <!-- Step 4: FAISS Search -->
  <rect x="630" y="150" width="140" height="100" rx="50" ry="50" fill="#4338ca" />
  <rect x="635" y="155" width="130" height="90" rx="45" ry="45" fill="#6366f1" />
  <text x="700" y="185" font-family="Arial" font-size="14" font-weight="bold" text-anchor="middle" fill="white">4. FAISS Search</text>
  <text x="700" y="205" font-family="Arial" font-size="11" text-anchor="middle" fill="white">using indexed</text>
  <text x="700" y="220" font-family="Arial" font-size="11" text-anchor="middle" fill="white">product embeddings</text>
  
  <!-- Step 5: Return Recommended Products -->
  <rect x="630" y="320" width="140" height="60" rx="10" ry="10" fill="#4c1d95" />
  <rect x="635" y="325" width="130" height="50" rx="7" ry="7" fill="#6d28d9" />
  <text x="700" y="355" font-family="Arial" font-size="14" font-weight="bold" text-anchor="middle" fill="white">5. Return</text>
  <text x="700" y="370" font-family="Arial" font-size="11" text-anchor="middle" fill="white">Recommended Products</text>
  
  <!-- User Query Representation -->
  <g transform="translate(70, 100)">
    <rect x="0" y="0" width="60" height="20" rx="5" ry="5" fill="#3730a3" />
    <text x="30" y="15" font-family="Arial" font-size="10" text-anchor="middle" fill="white">User Query</text>
    <path d="M 30 25 L 30 60" stroke="#3730a3" stroke-width="2" stroke-dasharray="5,3" />
    <!-- Arrow head -->
    <polygon points="30,70 25,60 35,60" fill="#3730a3" />
  </g>
  
  <!-- Product Database Representation -->
  <g transform="translate(700, 100)">
    <rect x="-30" y="0" width="60" height="20" rx="5" ry="5" fill="#3730a3" />
    <text x="0" y="15" font-family="Arial" font-size="10" text-anchor="middle" fill="white">Product DB</text>
    <path d="M 0 25 L 0 60" stroke="#3730a3" stroke-width="2" stroke-dasharray="5,3" />
    <!-- Arrow head -->
    <polygon points="0,70 -5,60 5,60" fill="#3730a3" />
  </g>
  
  <!-- Flow Connectors with Visible Arrows -->
  <!-- Arrow 1 to 2 -->
  <path d="M 170 200 L 220 200" stroke="#5a67d8" stroke-width="3" />
  <polygon points="230,200 220,195 220,205" fill="#5a67d8" />
  
  <!-- Arrow 2 to 3 -->
  <path d="M 370 200 L 420 200" stroke="#5a67d8" stroke-width="3" />
  <polygon points="430,200 420,195 420,205" fill="#5a67d8" />
  
  <!-- Arrow 3 to 4 -->
  <path d="M 570 200 L 620 200" stroke="#5a67d8" stroke-width="3" />
  <polygon points="630,200 620,195 620,205" fill="#5a67d8" />
  
  <!-- Path from query tower to FAISS -->
  <path d="M 500 230 C 500 270 530 270 560 270 L 650 270 C 680 270 700 270 700 230" stroke="#5a67d8" stroke-width="3" fill="none" />
  <!-- Arrow for curved path -->
  <polygon points="700,220 695,230 705,230" fill="#5a67d8" />
  
  <!-- Final Arrow to recommendations -->
  <path d="M 700 245 L 700 310" stroke="#5a67d8" stroke-width="3" />
  <polygon points="700,320 695,310 705,310" fill="#5a67d8" />
</svg>
